<svg xmlns="http://www.w3.org/2000/svg" xmlns:xlink="http://www.w3.org/1999/xlink" width="500" zoomAndPan="magnify" viewBox="0 0 375 374.999991" height="500" preserveAspectRatio="xMidYMid meet" version="1.0"><defs><clipPath id="7ef95722da"><path d="M 18.125 16.417969 L 360.332031 16.417969 L 360.332031 358.125 L 18.125 358.125 Z M 18.125 16.417969 " clip-rule="nonzero"/></clipPath><linearGradient x1="-0.00000109998" gradientTransform="matrix(0.61379, 0, 0, 0.61379, 18.123776, 16.418)" y1="0" x2="557.531226" gradientUnits="userSpaceOnUse" y2="0" id="1ad1d03486"><stop stop-opacity="1" stop-color="rgb(36.499023%, 87.799072%, 90.19928%)" offset="0"/><stop stop-opacity="1" stop-color="rgb(36.355591%, 87.568665%, 90.110779%)" offset="0.00390625"/><stop stop-opacity="1" stop-color="rgb(36.213684%, 87.339783%, 90.023804%)" offset="0.0078125"/><stop stop-opacity="1" stop-color="rgb(36.070251%, 87.109375%, 89.936829%)" offset="0.0117188"/><stop stop-opacity="1" stop-color="rgb(35.928345%, 86.880493%, 89.849854%)" offset="0.015625"/><stop stop-opacity="1" stop-color="rgb(35.786438%, 86.650085%, 89.761353%)" offset="0.0195312"/><stop stop-opacity="1" stop-color="rgb(35.644531%, 86.421204%, 89.674377%)" offset="0.0234375"/><stop stop-opacity="1" stop-color="rgb(35.501099%, 86.190796%, 89.585876%)" offset="0.0273438"/><stop stop-opacity="1" stop-color="rgb(35.359192%, 85.961914%, 89.498901%)" offset="0.03125"/><stop stop-opacity="1" stop-color="rgb(35.215759%, 85.731506%, 89.411926%)" offset="0.0351562"/><stop stop-opacity="1" stop-color="rgb(35.073853%, 85.502625%, 89.324951%)" offset="0.0390625"/><stop stop-opacity="1" stop-color="rgb(34.93042%, 85.272217%, 89.23645%)" offset="0.0429688"/><stop stop-opacity="1" stop-color="rgb(34.788513%, 85.043335%, 89.149475%)" offset="0.046875"/><stop stop-opacity="1" stop-color="rgb(34.645081%, 84.812927%, 89.060974%)" offset="0.0507813"/><stop stop-opacity="1" stop-color="rgb(34.503174%, 84.584045%, 88.973999%)" offset="0.0546875"/><stop stop-opacity="1" stop-color="rgb(34.359741%, 84.353638%, 88.885498%)" offset="0.0585938"/><stop stop-opacity="1" stop-color="rgb(34.217834%, 84.124756%, 88.798523%)" offset="0.0625"/><stop stop-opacity="1" stop-color="rgb(34.074402%, 83.894348%, 88.711548%)" offset="0.0664062"/><stop stop-opacity="1" stop-color="rgb(33.932495%, 83.665466%, 88.624573%)" offset="0.0703125"/><stop stop-opacity="1" stop-color="rgb(33.789062%, 83.435059%, 88.536072%)" offset="0.0742188"/><stop stop-opacity="1" stop-color="rgb(33.647156%, 83.206177%, 88.449097%)" offset="0.078125"/><stop stop-opacity="1" stop-color="rgb(33.503723%, 82.975769%, 88.360596%)" offset="0.0820313"/><stop stop-opacity="1" stop-color="rgb(33.361816%, 82.745361%, 88.273621%)" offset="0.0859375"/><stop stop-opacity="1" stop-color="rgb(33.21991%, 82.514954%, 88.186646%)" offset="0.0898438"/><stop stop-opacity="1" stop-color="rgb(33.078003%, 82.286072%, 88.09967%)" offset="0.09375"/><stop stop-opacity="1" stop-color="rgb(32.93457%, 82.055664%, 88.011169%)" offset="0.0976562"/><stop stop-opacity="1" stop-color="rgb(32.792664%, 81.826782%, 87.924194%)" offset="0.101562"/><stop stop-opacity="1" stop-color="rgb(32.649231%, 81.596375%, 87.835693%)" offset="0.105469"/><stop stop-opacity="1" stop-color="rgb(32.507324%, 81.367493%, 87.748718%)" offset="0.109375"/><stop stop-opacity="1" stop-color="rgb(32.363892%, 81.137085%, 87.661743%)" offset="0.113281"/><stop stop-opacity="1" stop-color="rgb(32.221985%, 80.908203%, 87.574768%)" offset="0.117188"/><stop stop-opacity="1" stop-color="rgb(32.078552%, 80.677795%, 87.486267%)" offset="0.121094"/><stop stop-opacity="1" stop-color="rgb(31.936646%, 80.448914%, 87.399292%)" offset="0.125"/><stop stop-opacity="1" stop-color="rgb(31.793213%, 80.218506%, 87.310791%)" offset="0.128906"/><stop stop-opacity="1" stop-color="rgb(31.651306%, 79.989624%, 87.223816%)" offset="0.132812"/><stop stop-opacity="1" stop-color="rgb(31.507874%, 79.759216%, 87.136841%)" offset="0.136719"/><stop stop-opacity="1" stop-color="rgb(31.365967%, 79.530334%, 87.049866%)" offset="0.140625"/><stop stop-opacity="1" stop-color="rgb(31.222534%, 79.299927%, 86.961365%)" offset="0.144531"/><stop stop-opacity="1" stop-color="rgb(31.080627%, 79.071045%, 86.87439%)" offset="0.148438"/><stop stop-opacity="1" stop-color="rgb(30.938721%, 78.840637%, 86.785889%)" offset="0.152344"/><stop stop-opacity="1" stop-color="rgb(30.796814%, 78.611755%, 86.698914%)" offset="0.15625"/><stop stop-opacity="1" stop-color="rgb(30.653381%, 78.381348%, 86.611938%)" offset="0.160156"/><stop stop-opacity="1" stop-color="rgb(30.511475%, 78.152466%, 86.524963%)" offset="0.164063"/><stop stop-opacity="1" stop-color="rgb(30.368042%, 77.922058%, 86.436462%)" offset="0.167969"/><stop stop-opacity="1" stop-color="rgb(30.226135%, 77.693176%, 86.349487%)" offset="0.171875"/><stop stop-opacity="1" stop-color="rgb(30.082703%, 77.462769%, 86.260986%)" offset="0.175781"/><stop stop-opacity="1" stop-color="rgb(29.940796%, 77.233887%, 86.174011%)" offset="0.179688"/><stop stop-opacity="1" stop-color="rgb(29.797363%, 77.003479%, 86.08551%)" offset="0.183594"/><stop stop-opacity="1" stop-color="rgb(29.655457%, 76.774597%, 85.998535%)" offset="0.1875"/><stop stop-opacity="1" stop-color="rgb(29.512024%, 76.544189%, 85.91156%)" offset="0.191406"/><stop stop-opacity="1" stop-color="rgb(29.370117%, 76.315308%, 85.824585%)" offset="0.195312"/><stop stop-opacity="1" stop-color="rgb(29.226685%, 76.0849%, 85.736084%)" offset="0.199219"/><stop stop-opacity="1" stop-color="rgb(29.084778%, 75.856018%, 85.649109%)" offset="0.203125"/><stop stop-opacity="1" stop-color="rgb(28.941345%, 75.62561%, 85.560608%)" offset="0.207031"/><stop stop-opacity="1" stop-color="rgb(28.799438%, 75.396729%, 85.473633%)" offset="0.210937"/><stop stop-opacity="1" stop-color="rgb(28.657532%, 75.166321%, 85.386658%)" offset="0.214844"/><stop stop-opacity="1" stop-color="rgb(28.515625%, 74.937439%, 85.299683%)" offset="0.21875"/><stop stop-opacity="1" stop-color="rgb(28.372192%, 74.707031%, 85.211182%)" offset="0.222656"/><stop stop-opacity="1" stop-color="rgb(28.230286%, 74.476624%, 85.124207%)" offset="0.226562"/><stop stop-opacity="1" stop-color="rgb(28.086853%, 74.246216%, 85.035706%)" offset="0.230469"/><stop stop-opacity="1" stop-color="rgb(27.944946%, 74.017334%, 84.94873%)" offset="0.234375"/><stop stop-opacity="1" stop-color="rgb(27.801514%, 73.786926%, 84.861755%)" offset="0.238281"/><stop stop-opacity="1" stop-color="rgb(27.659607%, 73.558044%, 84.77478%)" offset="0.242188"/><stop stop-opacity="1" stop-color="rgb(27.516174%, 73.327637%, 84.686279%)" offset="0.246094"/><stop stop-opacity="1" stop-color="rgb(27.374268%, 73.098755%, 84.599304%)" offset="0.25"/><stop stop-opacity="1" stop-color="rgb(27.230835%, 72.868347%, 84.510803%)" offset="0.253906"/><stop stop-opacity="1" stop-color="rgb(27.088928%, 72.639465%, 84.423828%)" offset="0.257812"/><stop stop-opacity="1" stop-color="rgb(26.945496%, 72.409058%, 84.336853%)" offset="0.261719"/><stop stop-opacity="1" stop-color="rgb(26.803589%, 72.180176%, 84.249878%)" offset="0.265625"/><stop stop-opacity="1" stop-color="rgb(26.660156%, 71.949768%, 84.161377%)" offset="0.269531"/><stop stop-opacity="1" stop-color="rgb(26.51825%, 71.720886%, 84.074402%)" offset="0.273438"/><stop stop-opacity="1" stop-color="rgb(26.374817%, 71.490479%, 83.985901%)" offset="0.277344"/><stop stop-opacity="1" stop-color="rgb(26.23291%, 71.261597%, 83.898926%)" offset="0.28125"/><stop stop-opacity="1" stop-color="rgb(26.091003%, 71.031189%, 83.811951%)" offset="0.285156"/><stop stop-opacity="1" stop-color="rgb(25.949097%, 70.802307%, 83.724976%)" offset="0.289062"/><stop stop-opacity="1" stop-color="rgb(25.805664%, 70.571899%, 83.636475%)" offset="0.292969"/><stop stop-opacity="1" stop-color="rgb(25.663757%, 70.343018%, 83.5495%)" offset="0.296875"/><stop stop-opacity="1" stop-color="rgb(25.520325%, 70.11261%, 83.460999%)" offset="0.300781"/><stop stop-opacity="1" stop-color="rgb(25.378418%, 69.883728%, 83.374023%)" offset="0.304688"/><stop stop-opacity="1" stop-color="rgb(25.234985%, 69.65332%, 83.285522%)" offset="0.308594"/><stop stop-opacity="1" stop-color="rgb(25.093079%, 69.424438%, 83.198547%)" offset="0.3125"/><stop stop-opacity="1" stop-color="rgb(24.949646%, 69.194031%, 83.111572%)" offset="0.316406"/><stop stop-opacity="1" stop-color="rgb(24.807739%, 68.965149%, 83.024597%)" offset="0.320313"/><stop stop-opacity="1" stop-color="rgb(24.664307%, 68.734741%, 82.936096%)" offset="0.324219"/><stop stop-opacity="1" stop-color="rgb(24.5224%, 68.505859%, 82.849121%)" offset="0.328125"/><stop stop-opacity="1" stop-color="rgb(24.378967%, 68.275452%, 82.76062%)" offset="0.332031"/><stop stop-opacity="1" stop-color="rgb(24.237061%, 68.04657%, 82.673645%)" offset="0.335938"/><stop stop-opacity="1" stop-color="rgb(24.093628%, 67.816162%, 82.58667%)" offset="0.339844"/><stop stop-opacity="1" stop-color="rgb(23.951721%, 67.58728%, 82.499695%)" offset="0.34375"/><stop stop-opacity="1" stop-color="rgb(23.809814%, 67.356873%, 82.411194%)" offset="0.347656"/><stop stop-opacity="1" stop-color="rgb(23.667908%, 67.127991%, 82.324219%)" offset="0.351563"/><stop stop-opacity="1" stop-color="rgb(23.524475%, 66.897583%, 82.235718%)" offset="0.355469"/><stop stop-opacity="1" stop-color="rgb(23.382568%, 66.668701%, 82.148743%)" offset="0.359375"/><stop stop-opacity="1" stop-color="rgb(23.239136%, 66.438293%, 82.061768%)" offset="0.363281"/><stop stop-opacity="1" stop-color="rgb(23.097229%, 66.207886%, 81.974792%)" offset="0.367188"/><stop stop-opacity="1" stop-color="rgb(22.953796%, 65.977478%, 81.886292%)" offset="0.371094"/><stop stop-opacity="1" stop-color="rgb(22.81189%, 65.748596%, 81.799316%)" offset="0.375"/><stop stop-opacity="1" stop-color="rgb(22.668457%, 65.518188%, 81.710815%)" offset="0.378906"/><stop stop-opacity="1" stop-color="rgb(22.52655%, 65.289307%, 81.62384%)" offset="0.382812"/><stop stop-opacity="1" stop-color="rgb(22.383118%, 65.058899%, 81.536865%)" offset="0.386719"/><stop stop-opacity="1" stop-color="rgb(22.241211%, 64.830017%, 81.44989%)" offset="0.390625"/><stop stop-opacity="1" stop-color="rgb(22.097778%, 64.599609%, 81.361389%)" offset="0.394531"/><stop stop-opacity="1" stop-color="rgb(21.955872%, 64.370728%, 81.274414%)" offset="0.398437"/><stop stop-opacity="1" stop-color="rgb(21.812439%, 64.14032%, 81.185913%)" offset="0.402344"/><stop stop-opacity="1" stop-color="rgb(21.670532%, 63.911438%, 81.098938%)" offset="0.40625"/><stop stop-opacity="1" stop-color="rgb(21.528625%, 63.68103%, 81.011963%)" offset="0.410156"/><stop stop-opacity="1" stop-color="rgb(21.386719%, 63.452148%, 80.924988%)" offset="0.414062"/><stop stop-opacity="1" stop-color="rgb(21.243286%, 63.221741%, 80.836487%)" offset="0.417969"/><stop stop-opacity="1" stop-color="rgb(21.101379%, 62.992859%, 80.749512%)" offset="0.421875"/><stop stop-opacity="1" stop-color="rgb(20.957947%, 62.762451%, 80.661011%)" offset="0.425781"/><stop stop-opacity="1" stop-color="rgb(20.81604%, 62.533569%, 80.574036%)" offset="0.429687"/><stop stop-opacity="1" stop-color="rgb(20.672607%, 62.303162%, 80.485535%)" offset="0.433594"/><stop stop-opacity="1" stop-color="rgb(20.530701%, 62.07428%, 80.39856%)" offset="0.4375"/><stop stop-opacity="1" stop-color="rgb(20.387268%, 61.843872%, 80.311584%)" offset="0.441406"/><stop stop-opacity="1" stop-color="rgb(20.245361%, 61.61499%, 80.224609%)" offset="0.445312"/><stop stop-opacity="1" stop-color="rgb(20.101929%, 61.384583%, 80.136108%)" offset="0.449219"/><stop stop-opacity="1" stop-color="rgb(19.960022%, 61.155701%, 80.049133%)" offset="0.453125"/><stop stop-opacity="1" stop-color="rgb(19.816589%, 60.925293%, 79.960632%)" offset="0.457031"/><stop stop-opacity="1" stop-color="rgb(19.674683%, 60.696411%, 79.873657%)" offset="0.460938"/><stop stop-opacity="1" stop-color="rgb(19.53125%, 60.466003%, 79.786682%)" offset="0.464844"/><stop stop-opacity="1" stop-color="rgb(19.389343%, 60.237122%, 79.699707%)" offset="0.46875"/><stop stop-opacity="1" stop-color="rgb(19.245911%, 60.006714%, 79.611206%)" offset="0.472656"/><stop stop-opacity="1" stop-color="rgb(19.104004%, 59.777832%, 79.524231%)" offset="0.476562"/><stop stop-opacity="1" stop-color="rgb(18.962097%, 59.547424%, 79.43573%)" offset="0.480469"/><stop stop-opacity="1" stop-color="rgb(18.82019%, 59.318542%, 79.348755%)" offset="0.484375"/><stop stop-opacity="1" stop-color="rgb(18.676758%, 59.088135%, 79.26178%)" offset="0.488281"/><stop stop-opacity="1" stop-color="rgb(18.534851%, 58.859253%, 79.174805%)" offset="0.492188"/><stop stop-opacity="1" stop-color="rgb(18.391418%, 58.628845%, 79.086304%)" offset="0.496094"/><stop stop-opacity="1" stop-color="rgb(18.249512%, 58.399963%, 78.999329%)" offset="0.5"/><stop stop-opacity="1" stop-color="rgb(18.106079%, 58.169556%, 78.910828%)" offset="0.503906"/><stop stop-opacity="1" stop-color="rgb(17.964172%, 57.939148%, 78.823853%)" offset="0.507812"/><stop stop-opacity="1" stop-color="rgb(17.82074%, 57.70874%, 78.736877%)" offset="0.511719"/><stop stop-opacity="1" stop-color="rgb(17.678833%, 57.479858%, 78.649902%)" offset="0.515625"/><stop stop-opacity="1" stop-color="rgb(17.5354%, 57.249451%, 78.561401%)" offset="0.519531"/><stop stop-opacity="1" stop-color="rgb(17.393494%, 57.020569%, 78.474426%)" offset="0.523438"/><stop stop-opacity="1" stop-color="rgb(17.250061%, 56.790161%, 78.385925%)" offset="0.527344"/><stop stop-opacity="1" stop-color="rgb(17.108154%, 56.561279%, 78.29895%)" offset="0.53125"/><stop stop-opacity="1" stop-color="rgb(16.964722%, 56.330872%, 78.211975%)" offset="0.535156"/><stop stop-opacity="1" stop-color="rgb(16.822815%, 56.10199%, 78.125%)" offset="0.539062"/><stop stop-opacity="1" stop-color="rgb(16.680908%, 55.871582%, 78.036499%)" offset="0.542969"/><stop stop-opacity="1" stop-color="rgb(16.539001%, 55.6427%, 77.949524%)" offset="0.546875"/><stop stop-opacity="1" stop-color="rgb(16.395569%, 55.412292%, 77.861023%)" offset="0.550781"/><stop stop-opacity="1" stop-color="rgb(16.253662%, 55.183411%, 77.774048%)" offset="0.554688"/><stop stop-opacity="1" stop-color="rgb(16.110229%, 54.953003%, 77.685547%)" offset="0.558594"/><stop stop-opacity="1" stop-color="rgb(15.968323%, 54.724121%, 77.598572%)" offset="0.5625"/><stop stop-opacity="1" stop-color="rgb(15.82489%, 54.493713%, 77.511597%)" offset="0.566406"/><stop stop-opacity="1" stop-color="rgb(15.682983%, 54.264832%, 77.424622%)" offset="0.570312"/><stop stop-opacity="1" stop-color="rgb(15.539551%, 54.034424%, 77.336121%)" offset="0.574219"/><stop stop-opacity="1" stop-color="rgb(15.397644%, 53.805542%, 77.249146%)" offset="0.578125"/><stop stop-opacity="1" stop-color="rgb(15.254211%, 53.575134%, 77.160645%)" offset="0.582031"/><stop stop-opacity="1" stop-color="rgb(15.112305%, 53.346252%, 77.073669%)" offset="0.585938"/><stop stop-opacity="1" stop-color="rgb(14.968872%, 53.115845%, 76.986694%)" offset="0.589844"/><stop stop-opacity="1" stop-color="rgb(14.826965%, 52.886963%, 76.899719%)" offset="0.59375"/><stop stop-opacity="1" stop-color="rgb(14.683533%, 52.656555%, 76.811218%)" offset="0.597656"/><stop stop-opacity="1" stop-color="rgb(14.541626%, 52.427673%, 76.724243%)" offset="0.601562"/><stop stop-opacity="1" stop-color="rgb(14.399719%, 52.197266%, 76.635742%)" offset="0.605469"/><stop stop-opacity="1" stop-color="rgb(14.257812%, 51.968384%, 76.548767%)" offset="0.609375"/><stop stop-opacity="1" stop-color="rgb(14.11438%, 51.737976%, 76.461792%)" offset="0.613281"/><stop stop-opacity="1" stop-color="rgb(13.972473%, 51.509094%, 76.374817%)" offset="0.617188"/><stop stop-opacity="1" stop-color="rgb(13.829041%, 51.278687%, 76.286316%)" offset="0.621094"/><stop stop-opacity="1" stop-color="rgb(13.687134%, 51.049805%, 76.199341%)" offset="0.625"/><stop stop-opacity="1" stop-color="rgb(13.543701%, 50.819397%, 76.11084%)" offset="0.628906"/><stop stop-opacity="1" stop-color="rgb(13.401794%, 50.590515%, 76.023865%)" offset="0.632813"/><stop stop-opacity="1" stop-color="rgb(13.258362%, 50.360107%, 75.93689%)" offset="0.636719"/><stop stop-opacity="1" stop-color="rgb(13.116455%, 50.131226%, 75.849915%)" offset="0.640625"/><stop stop-opacity="1" stop-color="rgb(12.973022%, 49.900818%, 75.761414%)" offset="0.644531"/><stop stop-opacity="1" stop-color="rgb(12.831116%, 49.67041%, 75.674438%)" offset="0.648438"/><stop stop-opacity="1" stop-color="rgb(12.687683%, 49.440002%, 75.585938%)" offset="0.652344"/><stop stop-opacity="1" stop-color="rgb(12.545776%, 49.211121%, 75.498962%)" offset="0.65625"/><stop stop-opacity="1" stop-color="rgb(12.402344%, 48.980713%, 75.410461%)" offset="0.660156"/><stop stop-opacity="1" stop-color="rgb(12.260437%, 48.751831%, 75.323486%)" offset="0.664063"/><stop stop-opacity="1" stop-color="rgb(12.117004%, 48.521423%, 75.236511%)" offset="0.667969"/><stop stop-opacity="1" stop-color="rgb(11.975098%, 48.292542%, 75.149536%)" offset="0.671875"/><stop stop-opacity="1" stop-color="rgb(11.833191%, 48.062134%, 75.061035%)" offset="0.675781"/><stop stop-opacity="1" stop-color="rgb(11.691284%, 47.833252%, 74.97406%)" offset="0.679688"/><stop stop-opacity="1" stop-color="rgb(11.547852%, 47.602844%, 74.885559%)" offset="0.683594"/><stop stop-opacity="1" stop-color="rgb(11.405945%, 47.373962%, 74.798584%)" offset="0.6875"/><stop stop-opacity="1" stop-color="rgb(11.262512%, 47.143555%, 74.711609%)" offset="0.691406"/><stop stop-opacity="1" stop-color="rgb(11.120605%, 46.914673%, 74.624634%)" offset="0.695313"/><stop stop-opacity="1" stop-color="rgb(10.977173%, 46.684265%, 74.536133%)" offset="0.699219"/><stop stop-opacity="1" stop-color="rgb(10.835266%, 46.455383%, 74.449158%)" offset="0.703125"/><stop stop-opacity="1" stop-color="rgb(10.691833%, 46.224976%, 74.360657%)" offset="0.707031"/><stop stop-opacity="1" stop-color="rgb(10.549927%, 45.996094%, 74.273682%)" offset="0.710938"/><stop stop-opacity="1" stop-color="rgb(10.406494%, 45.765686%, 74.186707%)" offset="0.714844"/><stop stop-opacity="1" stop-color="rgb(10.264587%, 45.536804%, 74.099731%)" offset="0.71875"/><stop stop-opacity="1" stop-color="rgb(10.121155%, 45.306396%, 74.01123%)" offset="0.722656"/><stop stop-opacity="1" stop-color="rgb(9.979248%, 45.077515%, 73.924255%)" offset="0.726563"/><stop stop-opacity="1" stop-color="rgb(9.835815%, 44.847107%, 73.835754%)" offset="0.730469"/><stop stop-opacity="1" stop-color="rgb(9.693909%, 44.618225%, 73.748779%)" offset="0.734375"/><stop stop-opacity="1" stop-color="rgb(9.552002%, 44.387817%, 73.661804%)" offset="0.738281"/><stop stop-opacity="1" stop-color="rgb(9.410095%, 44.158936%, 73.574829%)" offset="0.742188"/><stop stop-opacity="1" stop-color="rgb(9.266663%, 43.928528%, 73.486328%)" offset="0.746094"/><stop stop-opacity="1" stop-color="rgb(9.124756%, 43.699646%, 73.399353%)" offset="0.75"/><stop stop-opacity="1" stop-color="rgb(8.981323%, 43.469238%, 73.310852%)" offset="0.753906"/><stop stop-opacity="1" stop-color="rgb(8.839417%, 43.240356%, 73.223877%)" offset="0.757812"/><stop stop-opacity="1" stop-color="rgb(8.695984%, 43.009949%, 73.136902%)" offset="0.761719"/><stop stop-opacity="1" stop-color="rgb(8.554077%, 42.781067%, 73.049927%)" offset="0.765625"/><stop stop-opacity="1" stop-color="rgb(8.410645%, 42.550659%, 72.961426%)" offset="0.769531"/><stop stop-opacity="1" stop-color="rgb(8.268738%, 42.321777%, 72.874451%)" offset="0.773437"/><stop stop-opacity="1" stop-color="rgb(8.125305%, 42.09137%, 72.78595%)" offset="0.777344"/><stop stop-opacity="1" stop-color="rgb(7.983398%, 41.862488%, 72.698975%)" offset="0.78125"/><stop stop-opacity="1" stop-color="rgb(7.839966%, 41.63208%, 72.610474%)" offset="0.785156"/><stop stop-opacity="1" stop-color="rgb(7.698059%, 41.401672%, 72.523499%)" offset="0.789062"/><stop stop-opacity="1" stop-color="rgb(7.554626%, 41.171265%, 72.436523%)" offset="0.792969"/><stop stop-opacity="1" stop-color="rgb(7.41272%, 40.942383%, 72.349548%)" offset="0.796875"/><stop stop-opacity="1" stop-color="rgb(7.270813%, 40.711975%, 72.261047%)" offset="0.800781"/><stop stop-opacity="1" stop-color="rgb(7.128906%, 40.483093%, 72.174072%)" offset="0.804687"/><stop stop-opacity="1" stop-color="rgb(6.985474%, 40.252686%, 72.085571%)" offset="0.808594"/><stop stop-opacity="1" stop-color="rgb(6.843567%, 40.023804%, 71.998596%)" offset="0.8125"/><stop stop-opacity="1" stop-color="rgb(6.700134%, 39.793396%, 71.911621%)" offset="0.816406"/><stop stop-opacity="1" stop-color="rgb(6.558228%, 39.564514%, 71.824646%)" offset="0.820312"/><stop stop-opacity="1" stop-color="rgb(6.414795%, 39.334106%, 71.736145%)" offset="0.824219"/><stop stop-opacity="1" stop-color="rgb(6.272888%, 39.105225%, 71.64917%)" offset="0.828125"/><stop stop-opacity="1" stop-color="rgb(6.129456%, 38.874817%, 71.560669%)" offset="0.832031"/><stop stop-opacity="1" stop-color="rgb(5.987549%, 38.645935%, 71.473694%)" offset="0.835937"/><stop stop-opacity="1" stop-color="rgb(5.844116%, 38.415527%, 71.386719%)" offset="0.839844"/><stop stop-opacity="1" stop-color="rgb(5.702209%, 38.186646%, 71.299744%)" offset="0.84375"/><stop stop-opacity="1" stop-color="rgb(5.558777%, 37.956238%, 71.211243%)" offset="0.847656"/><stop stop-opacity="1" stop-color="rgb(5.41687%, 37.727356%, 71.124268%)" offset="0.851562"/><stop stop-opacity="1" stop-color="rgb(5.273438%, 37.496948%, 71.035767%)" offset="0.855469"/><stop stop-opacity="1" stop-color="rgb(5.131531%, 37.268066%, 70.948792%)" offset="0.859375"/><stop stop-opacity="1" stop-color="rgb(4.988098%, 37.037659%, 70.861816%)" offset="0.863281"/><stop stop-opacity="1" stop-color="rgb(4.846191%, 36.808777%, 70.774841%)" offset="0.867187"/><stop stop-opacity="1" stop-color="rgb(4.704285%, 36.578369%, 70.68634%)" offset="0.871094"/><stop stop-opacity="1" stop-color="rgb(4.562378%, 36.349487%, 70.599365%)" offset="0.875"/><stop stop-opacity="1" stop-color="rgb(4.418945%, 36.11908%, 70.510864%)" offset="0.878906"/><stop stop-opacity="1" stop-color="rgb(4.277039%, 35.890198%, 70.423889%)" offset="0.882812"/><stop stop-opacity="1" stop-color="rgb(4.133606%, 35.65979%, 70.336914%)" offset="0.886719"/><stop stop-opacity="1" stop-color="rgb(3.991699%, 35.430908%, 70.249939%)" offset="0.890625"/><stop stop-opacity="1" stop-color="rgb(3.848267%, 35.2005%, 70.161438%)" offset="0.894531"/><stop stop-opacity="1" stop-color="rgb(3.70636%, 34.971619%, 70.074463%)" offset="0.898438"/><stop stop-opacity="1" stop-color="rgb(3.562927%, 34.741211%, 69.985962%)" offset="0.902344"/><stop stop-opacity="1" stop-color="rgb(3.421021%, 34.512329%, 69.898987%)" offset="0.90625"/><stop stop-opacity="1" stop-color="rgb(3.277588%, 34.281921%, 69.810486%)" offset="0.910156"/><stop stop-opacity="1" stop-color="rgb(3.135681%, 34.05304%, 69.723511%)" offset="0.914062"/><stop stop-opacity="1" stop-color="rgb(2.992249%, 33.822632%, 69.636536%)" offset="0.917969"/><stop stop-opacity="1" stop-color="rgb(2.850342%, 33.59375%, 69.549561%)" offset="0.921875"/><stop stop-opacity="1" stop-color="rgb(2.706909%, 33.363342%, 69.46106%)" offset="0.925781"/><stop stop-opacity="1" stop-color="rgb(2.565002%, 33.132935%, 69.374084%)" offset="0.929688"/><stop stop-opacity="1" stop-color="rgb(2.423096%, 32.902527%, 69.285583%)" offset="0.933594"/><stop stop-opacity="1" stop-color="rgb(2.281189%, 32.673645%, 69.198608%)" offset="0.9375"/><stop stop-opacity="1" stop-color="rgb(2.137756%, 32.443237%, 69.111633%)" offset="0.941406"/><stop stop-opacity="1" stop-color="rgb(1.99585%, 32.214355%, 69.024658%)" offset="0.945312"/><stop stop-opacity="1" stop-color="rgb(1.852417%, 31.983948%, 68.936157%)" offset="0.949219"/><stop stop-opacity="1" stop-color="rgb(1.71051%, 31.755066%, 68.849182%)" offset="0.953125"/><stop stop-opacity="1" stop-color="rgb(1.567078%, 31.524658%, 68.760681%)" offset="0.957031"/><stop stop-opacity="1" stop-color="rgb(1.425171%, 31.295776%, 68.673706%)" offset="0.960938"/><stop stop-opacity="1" stop-color="rgb(1.281738%, 31.065369%, 68.586731%)" offset="0.964844"/><stop stop-opacity="1" stop-color="rgb(1.139832%, 30.836487%, 68.499756%)" offset="0.96875"/><stop stop-opacity="1" stop-color="rgb(0.996399%, 30.606079%, 68.411255%)" offset="0.972656"/><stop stop-opacity="1" stop-color="rgb(0.854492%, 30.377197%, 68.32428%)" offset="0.976562"/><stop stop-opacity="1" stop-color="rgb(0.71106%, 30.14679%, 68.235779%)" offset="0.980469"/><stop stop-opacity="1" stop-color="rgb(0.569153%, 29.917908%, 68.148804%)" offset="0.984375"/><stop stop-opacity="1" stop-color="rgb(0.42572%, 29.6875%, 68.061829%)" offset="0.988281"/><stop stop-opacity="1" stop-color="rgb(0.283813%, 29.458618%, 67.974854%)" offset="0.992188"/><stop stop-opacity="1" stop-color="rgb(0.141907%, 29.22821%, 67.886353%)" offset="0.996094"/><stop stop-opacity="1" stop-color="rgb(0%, 28.999329%, 67.799377%)" offset="1"/></linearGradient><clipPath id="7539bb4441"><path d="M 49.734375 44.328125 L 325.734375 44.328125 L 325.734375 331 L 49.734375 331 Z M 49.734375 44.328125 " clip-rule="nonzero"/></clipPath><clipPath id="a31cf1cd30"><path d="M 64.445312 44.328125 L 310.554688 44.328125 C 318.679688 44.328125 325.265625 50.914062 325.265625 59.039062 L 325.265625 315.960938 C 325.265625 324.085938 318.679688 330.671875 310.554688 330.671875 L 64.445312 330.671875 C 56.320312 330.671875 49.734375 324.085938 49.734375 315.960938 L 49.734375 59.039062 C 49.734375 50.914062 56.320312 44.328125 64.445312 44.328125 " clip-rule="nonzero"/></clipPath><clipPath id="f70a516f14"><path d="M 73.914062 67.0625 L 304.914062 67.0625 L 304.914062 298.0625 L 73.914062 298.0625 Z M 73.914062 67.0625 " clip-rule="nonzero"/></clipPath><clipPath id="04677acae3"><path d="M 150.617188 123 L 240 123 L 240 242 L 150.617188 242 Z M 150.617188 123 " clip-rule="nonzero"/></clipPath></defs><rect x="-37.5" width="450" fill="#fffffe" y="-37.499999" height="449.999989" fill-opacity="1"/><g clip-path="url(#7ef95722da)"><path fill="url(#1ad1d03486)" d="M 18.125 16.417969 L 18.125 358.125 L 360.332031 358.125 L 360.332031 16.417969 Z M 18.125 16.417969 " fill-rule="nonzero"/></g><g clip-path="url(#7539bb4441)"><g clip-path="url(#a31cf1cd30)"><path fill="#fffffe" d="M 49.734375 44.328125 L 325.050781 44.328125 L 325.050781 330.601562 L 49.734375 330.601562 Z M 49.734375 44.328125 " fill-opacity="1" fill-rule="nonzero"/></g></g><g clip-path="url(#f70a516f14)"><path fill="#4cc6dc" d="M 189.414062 67.0625 C 171.777344 67.0625 155.058594 71.054688 140.101562 78.152344 L 142.875 84.5625 C 157 77.835938 172.777344 74.0625 189.414062 74.0625 C 213.066406 74.0625 234.957031 81.691406 252.796875 94.597656 L 242.898438 104.496094 L 275.929688 111.578125 L 268.847656 78.546875 L 257.789062 89.59375 C 238.632812 75.472656 214.996094 67.0625 189.414062 67.0625 Z M 189.414062 84.5625 C 187.488281 84.5625 185.914062 86.136719 185.914062 88.0625 C 185.914062 89.992188 187.488281 91.5625 189.414062 91.5625 C 191.34375 91.5625 192.914062 89.992188 192.914062 88.0625 C 192.914062 86.136719 191.34375 84.5625 189.414062 84.5625 Z M 207.941406 86.367188 C 206.230469 86.328125 204.753906 87.515625 204.414062 89.199219 C 204.042969 91.085938 205.273438 92.929688 207.175781 93.3125 C 209.0625 93.683594 210.90625 92.453125 211.289062 90.566406 C 211.660156 88.664062 210.429688 86.820312 208.542969 86.4375 C 208.335938 86.410156 208.144531 86.382812 207.941406 86.367188 Z M 171 86.382812 C 170.765625 86.382812 170.535156 86.394531 170.300781 86.4375 C 168.402344 86.820312 167.171875 88.664062 167.554688 90.566406 C 167.730469 91.46875 168.265625 92.273438 169.042969 92.792969 C 169.808594 93.300781 170.753906 93.492188 171.667969 93.3125 C 173.570312 92.929688 174.800781 91.097656 174.417969 89.199219 C 174.089844 87.570312 172.667969 86.394531 171 86.382812 Z M 153.28125 91.753906 C 152.816406 91.753906 152.351562 91.835938 151.914062 92.015625 C 150.121094 92.765625 149.273438 94.804688 150.027344 96.59375 C 150.765625 98.386719 152.800781 99.234375 154.59375 98.496094 C 156.382812 97.742188 157.230469 95.707031 156.492188 93.914062 C 155.945312 92.617188 154.6875 91.769531 153.28125 91.753906 Z M 225.660156 91.753906 C 224.210938 91.726562 222.898438 92.574219 222.335938 93.914062 C 221.597656 95.707031 222.445312 97.742188 224.238281 98.496094 C 226.027344 99.234375 228.066406 98.386719 228.804688 96.59375 C 229.554688 94.804688 228.707031 92.765625 226.917969 92.015625 C 226.519531 91.851562 226.082031 91.769531 225.660156 91.753906 Z M 118.429688 96.046875 L 85.398438 103.128906 L 96.445312 114.191406 C 82.324219 133.34375 73.914062 156.984375 73.914062 182.5625 C 73.914062 200.199219 77.90625 216.921875 85.003906 231.878906 L 91.414062 229.101562 C 84.6875 214.980469 80.914062 199.203125 80.914062 182.5625 C 80.914062 158.910156 88.542969 137.023438 101.449219 119.179688 L 111.347656 129.078125 Z M 293.828125 133.25 L 287.414062 136.023438 C 294.140625 150.148438 297.914062 165.925781 297.914062 182.5625 C 297.914062 206.214844 290.285156 228.105469 277.378906 245.945312 L 267.480469 236.046875 L 260.398438 269.078125 L 293.429688 261.996094 L 282.382812 250.9375 C 296.507812 231.78125 304.914062 208.144531 304.914062 182.5625 C 304.914062 164.925781 300.921875 148.207031 293.828125 133.25 Z M 276.75 142.902344 C 276.285156 142.886719 275.820312 142.984375 275.382812 143.160156 C 273.59375 143.898438 272.746094 145.949219 273.484375 147.726562 C 274.234375 149.519531 276.273438 150.367188 278.0625 149.628906 C 279.855469 148.890625 280.703125 146.839844 279.964844 145.046875 C 279.417969 143.761719 278.160156 142.902344 276.75 142.902344 Z M 102.1875 142.902344 C 100.738281 142.875 99.425781 143.722656 98.878906 145.0625 C 98.140625 146.851562 98.988281 148.890625 100.765625 149.640625 C 102.558594 150.378906 104.609375 149.53125 105.347656 147.742188 C 106.085938 145.949219 105.238281 143.914062 103.445312 143.175781 C 103.050781 142.996094 102.625 142.914062 102.1875 142.902344 Z M 282.109375 160.632812 C 281.878906 160.621094 281.644531 160.648438 281.414062 160.6875 C 279.527344 161.070312 278.296875 162.917969 278.664062 164.804688 C 279.046875 166.703125 280.894531 167.933594 282.78125 167.566406 C 284.679688 167.183594 285.910156 165.335938 285.542969 163.4375 C 285.214844 161.808594 283.777344 160.632812 282.109375 160.632812 Z M 96.828125 160.632812 C 95.121094 160.59375 93.644531 161.769531 93.300781 163.4375 C 93.125 164.351562 93.300781 165.308594 93.820312 166.074219 C 94.339844 166.855469 95.148438 167.386719 96.0625 167.566406 C 96.964844 167.742188 97.910156 167.550781 98.6875 167.046875 C 99.453125 166.527344 99.988281 165.71875 100.164062 164.804688 C 100.546875 162.917969 99.316406 161.070312 97.429688 160.6875 C 97.226562 160.660156 97.035156 160.632812 96.828125 160.632812 Z M 94.914062 179.0625 C 92.988281 179.0625 91.414062 180.636719 91.414062 182.5625 C 91.414062 184.492188 92.988281 186.0625 94.914062 186.0625 C 96.84375 186.0625 98.414062 184.492188 98.414062 182.5625 C 98.414062 180.636719 96.84375 179.0625 94.914062 179.0625 Z M 283.914062 179.0625 C 281.988281 179.0625 280.414062 180.636719 280.414062 182.5625 C 280.414062 184.492188 281.988281 186.0625 283.914062 186.0625 C 285.84375 186.0625 287.414062 184.492188 287.414062 182.5625 C 287.414062 180.636719 285.84375 179.0625 283.914062 179.0625 Z M 96.746094 197.492188 C 96.515625 197.492188 96.28125 197.519531 96.050781 197.5625 C 94.148438 197.945312 92.917969 199.789062 93.300781 201.691406 C 93.683594 203.578125 95.515625 204.808594 97.417969 204.4375 C 99.316406 204.054688 100.546875 202.210938 100.164062 200.324219 C 99.835938 198.683594 98.414062 197.507812 96.746094 197.492188 Z M 282.191406 197.492188 C 280.484375 197.453125 279.007812 198.640625 278.664062 200.324219 C 278.296875 202.210938 279.527344 204.054688 281.414062 204.4375 C 283.3125 204.808594 285.160156 203.578125 285.542969 201.691406 C 285.910156 199.789062 284.679688 197.945312 282.78125 197.5625 C 282.589844 197.535156 282.398438 197.507812 282.191406 197.492188 Z M 276.804688 215.210938 C 275.355469 215.183594 274.042969 216.046875 273.484375 217.386719 C 272.746094 219.164062 273.59375 221.214844 275.382812 221.953125 C 277.175781 222.691406 279.210938 221.84375 279.964844 220.066406 C 280.703125 218.273438 279.855469 216.222656 278.0625 215.484375 C 277.667969 215.320312 277.230469 215.226562 276.804688 215.210938 Z M 102.132812 215.226562 C 101.667969 215.226562 101.203125 215.308594 100.765625 215.484375 C 99.917969 215.839844 99.234375 216.523438 98.878906 217.386719 C 98.523438 218.246094 98.523438 219.203125 98.867188 220.066406 C 99.617188 221.855469 101.65625 222.703125 103.445312 221.953125 C 104.308594 221.609375 104.992188 220.925781 105.347656 220.066406 C 105.703125 219.203125 105.703125 218.246094 105.347656 217.386719 C 104.8125 216.085938 103.542969 215.238281 102.132812 215.226562 Z M 102.898438 253.546875 L 109.980469 286.578125 L 121.042969 275.53125 C 140.195312 289.65625 163.835938 298.0625 189.414062 298.0625 C 207.050781 298.0625 223.773438 294.070312 238.730469 286.976562 L 235.953125 280.5625 C 221.832031 287.289062 206.054688 291.0625 189.414062 291.0625 C 165.761719 291.0625 143.875 283.433594 126.03125 270.527344 L 135.929688 260.628906 Z M 153.335938 266.359375 C 151.886719 266.332031 150.574219 267.191406 150.027344 268.53125 C 149.289062 270.308594 150.136719 272.359375 151.914062 273.097656 C 153.703125 273.835938 155.753906 272.988281 156.492188 271.210938 C 157.230469 269.421875 156.382812 267.371094 154.59375 266.632812 C 154.195312 266.46875 153.773438 266.371094 153.335938 266.359375 Z M 225.605469 266.359375 C 225.140625 266.359375 224.675781 266.453125 224.25 266.632812 C 223.390625 266.988281 222.707031 267.671875 222.351562 268.519531 C 221.996094 269.378906 221.996094 270.351562 222.335938 271.210938 C 223.089844 272.988281 225.125 273.835938 226.917969 273.097656 C 227.777344 272.742188 228.460938 272.058594 228.816406 271.210938 C 229.171875 270.351562 229.171875 269.378906 228.816406 268.53125 C 228.285156 267.21875 227.011719 266.371094 225.605469 266.359375 Z M 171.082031 271.746094 C 169.371094 271.703125 167.882812 272.894531 167.554688 274.5625 C 167.171875 276.460938 168.402344 278.292969 170.300781 278.675781 C 172.203125 279.058594 174.035156 277.828125 174.417969 275.929688 C 174.800781 274.027344 173.570312 272.195312 171.667969 271.8125 C 171.476562 271.773438 171.273438 271.746094 171.082031 271.746094 Z M 207.859375 271.757812 C 207.625 271.746094 207.394531 271.773438 207.175781 271.8125 C 205.273438 272.195312 204.042969 274.027344 204.414062 275.929688 C 204.605469 276.84375 205.136719 277.636719 205.902344 278.15625 C 206.683594 278.675781 207.625 278.867188 208.542969 278.691406 C 209.445312 278.5 210.25 277.964844 210.769531 277.199219 C 211.277344 276.421875 211.46875 275.476562 211.289062 274.5625 C 210.960938 272.933594 209.527344 271.757812 207.859375 271.757812 Z M 189.414062 273.5625 C 187.488281 273.5625 185.914062 275.136719 185.914062 277.0625 C 185.914062 278.992188 187.488281 280.5625 189.414062 280.5625 C 191.34375 280.5625 192.914062 278.992188 192.914062 277.0625 C 192.914062 275.136719 191.34375 273.5625 189.414062 273.5625 Z M 189.414062 273.5625 " fill-opacity="1" fill-rule="nonzero"/></g><g clip-path="url(#04677acae3)"><path fill="#4cc6dc" d="M 200.09375 161.988281 C 209.433594 164.824219 217.546875 170.105469 224.941406 176.5 C 228.109375 179.113281 231.054688 182.058594 233.613281 185.28125 C 243.617188 198.125 241.449219 215.304688 228.664062 225.480469 C 227.21875 226.648438 225.664062 227.703125 224.050781 228.648438 C 210.933594 235.429688 197.367188 240.65625 182.359375 241.269531 C 177.96875 241.433594 173.578125 241.933594 169.1875 241.878906 C 166.40625 241.824219 163.683594 241.269531 160.957031 240.65625 C 157.011719 239.765625 154.84375 237.042969 154.398438 233.097656 C 153.507812 225.257812 152.34375 217.472656 152.121094 209.632812 C 151.5625 190.0625 151.453125 170.496094 151.175781 150.925781 C 151.121094 145.53125 151.007812 140.195312 150.785156 134.855469 C 150.617188 129.855469 155.898438 124.015625 161.402344 123.683594 C 171.019531 123.125 180.636719 123.847656 189.921875 126.460938 C 199.59375 129.1875 205.761719 139.75 203.707031 150.089844 C 202.929688 153.925781 201.425781 157.707031 200.09375 161.988281 Z M 170.296875 226.867188 C 172.910156 226.589844 175.410156 226.3125 177.859375 226.089844 C 190.644531 225.035156 202.59375 221.085938 214.101562 215.636719 C 224.164062 210.855469 227.386719 200.792969 217.660156 191.566406 C 206.320312 180.78125 192.976562 175.109375 177.523438 174.109375 C 174.410156 173.886719 171.242188 173.273438 168.019531 174.273438 C 167.796875 191.84375 167.519531 209.246094 170.296875 226.867188 Z M 166.238281 138.695312 C 166.515625 144.640625 166.796875 150.144531 167.128906 155.984375 C 170.796875 156.484375 174.078125 157.316406 177.355469 157.207031 C 183.027344 157.152344 187.640625 152.425781 187.640625 146.699219 C 187.640625 143.917969 186.75 142.308594 184.195312 141.585938 C 178.300781 139.859375 172.296875 138.914062 166.238281 138.695312 Z M 166.238281 138.695312 " fill-opacity="1" fill-rule="nonzero"/></g></svg>